<svg width="643" height="269" viewBox="0 0 643 269" fill="none" xmlns="http://www.w3.org/2000/svg">
<g clip-path="url(#clip0_51_11)">
<path d="M118.78 238.52C123.01 238.52 127.17 238.21 131.25 237.63L103.24 64.48C62.21 71.83 31.07 107.69 31.07 150.82C31.07 199.26 70.34 238.52 118.77 238.52H118.78Z" fill="url(#paint0_linear_51_11)"/>
<path d="M24.61 163.44C24.21 167 24 170.62 24 174.29C24 187.48 26.66 200.04 31.48 211.47L38.15 202.74C30.97 191.06 26.22 177.73 24.61 163.44Z" fill="url(#paint1_linear_51_11)"/>
<path d="M44.63 210.85L36.96 221.54C39.77 226.25 42.98 230.7 46.54 234.84L54.71 221.57C51.08 218.26 47.71 214.68 44.63 210.85Z" fill="url(#paint2_linear_51_11)"/>
<path d="M54.71 243.23C59.19 247.2 64.04 250.75 69.2 253.83L77.03 236.33C72.17 234.01 67.53 231.29 63.17 228.22L54.71 243.22V243.23Z" fill="url(#paint3_linear_51_11)"/>
<path d="M119.17 264.97C96.78 260.92 101.88 245.04 101.88 245.04C97.85 244.3 93.91 243.31 90.07 242.08C89.81 242 89.53 242.13 89.42 242.38L81.97 260.19C81.86 260.46 81.98 260.77 82.25 260.89C93.65 265.68 106.18 268.33 119.32 268.33C119.63 268.33 119.87 268.06 119.84 267.75L119.59 265.45C119.56 265.22 119.39 265.03 119.15 264.99L119.17 264.97Z" fill="url(#paint4_linear_51_11)"/>
<path d="M119.2 246.86L107.89 245.9C107.89 245.9 107.74 249.45 109.09 252.52L119.43 248.37C120.2 248.06 120.03 246.93 119.2 246.86Z" fill="url(#paint5_linear_51_11)"/>
<path d="M173.75 97.6C169.74 96.25 165.7 95.22 161.65 94.47L133.08 267.53C174.3 273.63 215.23 249.55 228.97 208.67C244.39 162.75 219.67 113.03 173.76 97.61L173.75 97.6Z" fill="url(#paint6_linear_51_11)"/>
<path d="M239.12 198.76C240.63 195.51 241.98 192.15 243.15 188.67C247.35 176.17 248.82 163.41 247.9 151.04L238.8 157.2C241.89 170.56 242.15 184.71 239.12 198.76Z" fill="url(#paint7_linear_51_11)"/>
<path d="M235.23 147.44L245.9 139.75C244.73 134.39 243.11 129.15 241.06 124.09L229.09 134.07C231.47 138.36 233.53 142.83 235.23 147.44Z" fill="url(#paint8_linear_51_11)"/>
<path d="M235.98 113.53C233 108.34 229.53 103.43 225.62 98.86L212.63 112.95C216.5 116.7 220.03 120.75 223.19 125.05L235.99 113.52L235.98 113.53Z" fill="url(#paint9_linear_51_11)"/>
<path d="M181.8 72.4C201.74 83.37 191.84 96.8 191.84 96.8C195.42 98.79 198.85 100.98 202.09 103.37C202.31 103.53 202.62 103.5 202.8 103.29L215.53 88.77C215.72 88.55 215.7 88.21 215.48 88.02C206.19 79.85 195.17 73.35 182.71 69.17C182.42 69.07 182.1 69.25 182.03 69.56L181.53 71.82C181.48 72.05 181.59 72.28 181.79 72.4H181.8Z" fill="url(#paint10_linear_51_11)"/>
<path d="M176.01 89.56L186.43 94.07C186.43 94.07 187.7 90.75 187.4 87.41L176.27 88.05C175.44 88.1 175.24 89.23 176 89.55L176.01 89.56Z" fill="url(#paint11_linear_51_11)"/>
<path d="M149.59 88.46H126.21V90.68H149.59V88.46Z" fill="#214498"/>
<path d="M150.74 94.95H121.85V97.17H150.74V94.95Z" fill="#214498"/>
<path d="M150.75 101.44H119.1V103.66H150.75V101.44Z" fill="#214498"/>
<path d="M146.03 107.93H117.14V110.15H146.03V107.93Z" fill="#214498"/>
<path d="M145.68 114.42H116.79V116.64H145.68V114.42Z" fill="#ED2227"/>
<path d="M152.95 84.98C152.95 84.98 160.38 105.24 148.68 117.5C136.97 129.77 128.24 131.62 125.82 151.51C125.82 151.51 119.13 132 135.67 118.25C152.21 104.5 151.47 92.98 151.47 92.98L152.96 84.99L152.95 84.98Z" fill="#ED2227"/>
<path d="M92.34 0C92.34 0 87.01 38.94 117.77 63.83C148.53 88.72 149.95 99.92 149.95 99.92C149.95 99.92 160.8 89.25 145.33 69.52C129.86 49.78 101.95 40 92.34 0Z" fill="#FCEE1D"/>
<path d="M147.1 52.81C147.1 52.81 147.46 67.64 128.43 84.32C109.4 101 117.41 118.25 117.41 118.25C117.41 118.25 115.7 104.2 133.8 90.69C151.9 77.18 147.1 52.82 147.1 52.82V52.81Z" fill="#214498"/>
<path d="M144.64 25.73C143.59 24.73 142.36 23.96 140.94 23.42C139.52 22.88 137.95 22.6 136.24 22.6C134.53 22.6 132.99 22.87 131.56 23.42C130.13 23.96 128.89 24.73 127.83 25.73C126.77 26.73 125.95 27.89 125.37 29.22C124.79 30.55 124.49 32.01 124.49 33.6C124.49 35.19 124.78 36.65 125.37 37.98C125.95 39.31 126.78 40.47 127.83 41.47C128.89 42.47 130.13 43.24 131.56 43.78C132.99 44.32 134.55 44.6 136.24 44.6C137.93 44.6 139.52 44.33 140.94 43.78C142.36 43.24 143.59 42.47 144.64 41.48C145.69 40.49 146.51 39.33 147.1 37.99C147.69 36.65 147.99 35.18 147.99 33.59C147.99 32 147.69 30.54 147.1 29.21C146.51 27.88 145.68 26.72 144.64 25.72V25.73ZM141.51 36.08C141.22 36.83 140.81 37.47 140.3 38C139.79 38.53 139.18 38.94 138.49 39.22C137.79 39.5 137.04 39.64 136.24 39.64C135.44 39.64 134.68 39.5 133.99 39.22C133.29 38.94 132.69 38.53 132.18 38C131.67 37.47 131.26 36.83 130.97 36.08C130.68 35.34 130.53 34.51 130.53 33.6C130.53 32.69 130.68 31.84 130.97 31.11C131.26 30.37 131.66 29.74 132.18 29.21C132.69 28.68 133.3 28.27 133.99 27.99C134.68 27.71 135.44 27.57 136.24 27.57C137.04 27.57 137.8 27.71 138.49 27.99C139.18 28.27 139.79 28.68 140.3 29.21C140.81 29.74 141.22 30.38 141.51 31.11C141.8 31.85 141.95 32.68 141.95 33.6C141.95 34.52 141.8 35.33 141.51 36.08Z" fill="#ED2227"/>
<path d="M165.4 34.3L156.07 23.03H151.14V44.18H157V32.91L166.34 44.18H171.27V23.03H165.4V34.3Z" fill="#ED2227"/>
<path d="M182.1 29.21C182.61 28.68 183.23 28.27 183.96 27.99C184.69 27.71 185.48 27.57 186.35 27.57C187.36 27.57 188.27 27.78 189.09 28.21C189.91 28.63 190.66 29.25 191.34 30.05L195.15 26.61C194.12 25.32 192.84 24.33 191.3 23.65C189.76 22.97 188.01 22.62 186.06 22.62C184.39 22.62 182.84 22.89 181.42 23.42C180 23.95 178.77 24.71 177.73 25.7C176.69 26.69 175.88 27.85 175.3 29.19C174.72 30.53 174.42 32.01 174.42 33.62C174.42 35.23 174.71 36.71 175.3 38.05C175.88 39.39 176.69 40.55 177.73 41.54C178.77 42.53 180 43.29 181.42 43.82C182.84 44.35 184.39 44.62 186.06 44.62C188.01 44.62 189.76 44.27 191.3 43.58C192.84 42.88 194.13 41.9 195.15 40.63L191.34 37.18C190.65 37.99 189.9 38.6 189.09 39.02C188.27 39.44 187.36 39.65 186.35 39.65C185.48 39.65 184.69 39.51 183.96 39.23C183.23 38.95 182.62 38.54 182.1 38.01C181.59 37.48 181.18 36.84 180.89 36.09C180.6 35.35 180.45 34.52 180.45 33.61C180.45 32.7 180.6 31.88 180.89 31.13C181.18 30.38 181.58 29.74 182.1 29.21Z" fill="#ED2227"/>
<path d="M218.88 29.22C218.29 27.89 217.46 26.73 216.42 25.73C215.37 24.73 214.14 23.96 212.72 23.42C211.3 22.88 209.73 22.6 208.02 22.6C206.31 22.6 204.77 22.87 203.34 23.42C201.91 23.96 200.67 24.73 199.61 25.73C198.55 26.73 197.73 27.89 197.15 29.22C196.57 30.55 196.27 32.01 196.27 33.6C196.27 35.19 196.56 36.65 197.15 37.98C197.73 39.31 198.56 40.47 199.61 41.47C200.67 42.47 201.91 43.24 203.34 43.78C204.77 44.32 206.33 44.6 208.02 44.6C209.71 44.6 211.3 44.33 212.72 43.78C214.14 43.24 215.37 42.47 216.42 41.48C217.47 40.49 218.29 39.33 218.88 37.99C219.47 36.65 219.77 35.18 219.77 33.59C219.77 32 219.47 30.54 218.88 29.21V29.22ZM213.29 36.08C213 36.83 212.59 37.47 212.08 38C211.57 38.53 210.96 38.94 210.27 39.22C209.57 39.5 208.82 39.64 208.02 39.64C207.22 39.64 206.46 39.5 205.77 39.22C205.07 38.94 204.47 38.53 203.96 38C203.45 37.47 203.04 36.83 202.75 36.08C202.46 35.34 202.31 34.51 202.31 33.6C202.31 32.69 202.46 31.84 202.75 31.11C203.04 30.37 203.44 29.74 203.96 29.21C204.47 28.68 205.08 28.27 205.77 27.99C206.46 27.71 207.22 27.57 208.02 27.57C208.82 27.57 209.58 27.71 210.27 27.99C210.96 28.27 211.57 28.68 212.08 29.21C212.59 29.74 213 30.38 213.29 31.11C213.58 31.85 213.73 32.68 213.73 33.6C213.73 34.52 213.58 35.33 213.29 36.08Z" fill="#ED2227"/>
</g>
<path d="M298.067 101.545V167H288.191V101.545H298.067ZM312.449 101.545H324.434L345.272 152.426H346.039L366.877 101.545H378.862V167H369.466V119.635H368.859L349.555 166.904H341.756L322.452 119.603H321.845V167H312.449V101.545ZM428.92 118.74C428.579 115.714 427.173 113.371 424.701 111.709C422.23 110.026 419.119 109.184 415.369 109.184C412.684 109.184 410.362 109.61 408.401 110.462C406.441 111.293 404.918 112.444 403.831 113.914C402.766 115.363 402.233 117.014 402.233 118.868C402.233 120.423 402.595 121.766 403.32 122.895C404.066 124.024 405.035 124.972 406.228 125.739C407.443 126.485 408.742 127.114 410.127 127.625C411.512 128.115 412.844 128.52 414.122 128.839L420.514 130.501C422.602 131.013 424.744 131.705 426.938 132.579C429.133 133.452 431.168 134.603 433.043 136.031C434.918 137.458 436.431 139.227 437.581 141.336C438.753 143.445 439.339 145.97 439.339 148.911C439.339 152.618 438.38 155.91 436.463 158.786C434.566 161.663 431.807 163.932 428.185 165.594C424.584 167.256 420.227 168.087 415.113 168.087C410.213 168.087 405.972 167.309 402.393 165.754C398.813 164.198 396.012 161.993 393.987 159.138C391.963 156.261 390.845 152.852 390.632 148.911H400.539C400.731 151.276 401.498 153.246 402.84 154.823C404.204 156.379 405.941 157.54 408.05 158.307C410.181 159.053 412.514 159.425 415.049 159.425C417.84 159.425 420.323 158.989 422.496 158.115C424.691 157.22 426.416 155.984 427.673 154.408C428.931 152.81 429.559 150.945 429.559 148.815C429.559 146.876 429.005 145.288 427.897 144.053C426.811 142.817 425.33 141.794 423.455 140.984C421.601 140.175 419.502 139.461 417.159 138.843L409.424 136.734C404.183 135.306 400.028 133.207 396.96 130.438C393.913 127.668 392.389 124.003 392.389 119.443C392.389 115.672 393.412 112.38 395.458 109.567C397.503 106.755 400.273 104.571 403.767 103.016C407.262 101.439 411.203 100.651 415.593 100.651C420.024 100.651 423.934 101.428 427.322 102.984C430.731 104.539 433.416 106.68 435.376 109.408C437.336 112.114 438.359 115.224 438.444 118.74H428.92ZM451.14 167V101.545H474.471C479.564 101.545 483.782 102.472 487.127 104.326C490.473 106.18 492.976 108.715 494.638 111.933C496.3 115.129 497.131 118.729 497.131 122.735C497.131 126.762 496.289 130.384 494.606 133.602C492.944 136.798 490.43 139.333 487.064 141.208C483.718 143.062 479.51 143.989 474.439 143.989H458.395V135.615H473.544C476.762 135.615 479.372 135.061 481.375 133.953C483.377 132.824 484.848 131.29 485.785 129.351C486.723 127.412 487.191 125.207 487.191 122.735C487.191 120.263 486.723 118.069 485.785 116.151C484.848 114.234 483.367 112.732 481.343 111.645C479.34 110.558 476.698 110.015 473.417 110.015H461.016V167H451.14ZM542.403 101.545V167H532.527V101.545H542.403ZM613.642 134.273C613.642 141.261 612.364 147.27 609.807 152.298C607.25 157.305 603.745 161.162 599.292 163.868C594.86 166.553 589.821 167.895 584.175 167.895C578.507 167.895 573.447 166.553 568.994 163.868C564.562 161.162 561.067 157.295 558.511 152.266C555.954 147.238 554.675 141.24 554.675 134.273C554.675 127.284 555.954 121.286 558.511 116.279C561.067 111.251 564.562 107.394 568.994 104.71C573.447 102.004 578.507 100.651 584.175 100.651C589.821 100.651 594.86 102.004 599.292 104.71C603.745 107.394 607.25 111.251 609.807 116.279C612.364 121.286 613.642 127.284 613.642 134.273ZM603.862 134.273C603.862 128.946 602.999 124.461 601.273 120.817C599.569 117.153 597.225 114.383 594.242 112.508C591.281 110.612 587.925 109.663 584.175 109.663C580.403 109.663 577.037 110.612 574.075 112.508C571.114 114.383 568.77 117.153 567.044 120.817C565.339 124.461 564.487 128.946 564.487 134.273C564.487 139.599 565.339 144.095 567.044 147.76C568.77 151.403 571.114 154.173 574.075 156.07C577.037 157.945 580.403 158.882 584.175 158.882C587.925 158.882 591.281 157.945 594.242 156.07C597.225 154.173 599.569 151.403 601.273 147.76C602.999 144.095 603.862 139.599 603.862 134.273Z" fill="black"/>
<defs>
<linearGradient id="paint0_linear_51_11" x1="81.16" y1="-31.58" x2="81.16" y2="308.49" gradientUnits="userSpaceOnUse">
<stop stop-color="white"/>
<stop offset="1" stop-color="#231F20"/>
</linearGradient>
<linearGradient id="paint1_linear_51_11" x1="31.07" y1="-31.58" x2="31.07" y2="308.49" gradientUnits="userSpaceOnUse">
<stop stop-color="white"/>
<stop offset="1" stop-color="#231F20"/>
</linearGradient>
<linearGradient id="paint2_linear_51_11" x1="45.84" y1="-31.5799" x2="45.84" y2="308.49" gradientUnits="userSpaceOnUse">
<stop stop-color="white"/>
<stop offset="1" stop-color="#231F20"/>
</linearGradient>
<linearGradient id="paint3_linear_51_11" x1="65.87" y1="-31.58" x2="65.87" y2="308.49" gradientUnits="userSpaceOnUse">
<stop stop-color="white"/>
<stop offset="1" stop-color="#231F20"/>
</linearGradient>
<linearGradient id="paint4_linear_51_11" x1="100.9" y1="-31.5798" x2="100.9" y2="308.49" gradientUnits="userSpaceOnUse">
<stop stop-color="white"/>
<stop offset="1" stop-color="#231F20"/>
</linearGradient>
<linearGradient id="paint5_linear_51_11" x1="113.9" y1="-31.5804" x2="113.9" y2="308.49" gradientUnits="userSpaceOnUse">
<stop stop-color="white"/>
<stop offset="1" stop-color="#231F20"/>
</linearGradient>
<linearGradient id="paint6_linear_51_11" x1="183.32" y1="-31.58" x2="183.32" y2="308.49" gradientUnits="userSpaceOnUse">
<stop stop-color="white"/>
<stop offset="1" stop-color="#231F20"/>
</linearGradient>
<linearGradient id="paint7_linear_51_11" x1="243.48" y1="-31.58" x2="243.48" y2="308.49" gradientUnits="userSpaceOnUse">
<stop stop-color="white"/>
<stop offset="1" stop-color="#231F20"/>
</linearGradient>
<linearGradient id="paint8_linear_51_11" x1="237.49" y1="-31.5801" x2="237.49" y2="308.49" gradientUnits="userSpaceOnUse">
<stop stop-color="white"/>
<stop offset="1" stop-color="#231F20"/>
</linearGradient>
<linearGradient id="paint9_linear_51_11" x1="224.31" y1="-31.58" x2="224.31" y2="308.49" gradientUnits="userSpaceOnUse">
<stop stop-color="white"/>
<stop offset="1" stop-color="#231F20"/>
</linearGradient>
<linearGradient id="paint10_linear_51_11" x1="198.6" y1="-31.58" x2="198.6" y2="308.49" gradientUnits="userSpaceOnUse">
<stop stop-color="white"/>
<stop offset="1" stop-color="#231F20"/>
</linearGradient>
<linearGradient id="paint11_linear_51_11" x1="181.5" y1="-31.58" x2="181.5" y2="308.49" gradientUnits="userSpaceOnUse">
<stop stop-color="white"/>
<stop offset="1" stop-color="#231F20"/>
</linearGradient>
<clipPath id="clip0_51_11">
<rect width="225" height="269" fill="white" transform="translate(24)"/>
</clipPath>
</defs>
</svg>
