<?xml version="1.0" encoding="UTF-8"?>
<svg id="_Слой_2" data-name="Слой 2" xmlns="http://www.w3.org/2000/svg" xmlns:xlink="http://www.w3.org/1999/xlink" viewBox="0 0 6249.17 366.39">
  <defs>
    <style>
      .cls-1 {
        fill: url(#linear-gradient-5);
      }

      .cls-2 {
        fill: url(#linear-gradient-6);
      }

      .cls-3 {
        fill: url(#linear-gradient-4);
      }

      .cls-4 {
        fill: url(#linear-gradient-3);
      }

      .cls-5 {
        fill: url(#linear-gradient-2);
      }

      .cls-6 {
        fill: url(#linear-gradient);
      }
    </style>
    <linearGradient id="linear-gradient" x1="226.72" y1="85.34" x2="5257.83" y2="85.34" gradientUnits="userSpaceOnUse">
      <stop offset="0" stop-color="#add2ef"/>
      <stop offset="1" stop-color="#ffe7ad"/>
    </linearGradient>
    <linearGradient id="linear-gradient-2" x1="226.72" y1="219.51" x2="5257.83" y2="219.51" xlink:href="#linear-gradient"/>
    <linearGradient id="linear-gradient-3" x1="226.71" y1="346.51" x2="5257.91" y2="346.51" xlink:href="#linear-gradient"/>
    <linearGradient id="linear-gradient-4" x1="226.72" y1="152.45" x2="5257.84" y2="152.45" xlink:href="#linear-gradient"/>
    <linearGradient id="linear-gradient-5" x1="226.7" y1="346.51" x2="5257.84" y2="346.51" xlink:href="#linear-gradient"/>
    <linearGradient id="linear-gradient-6" x1="226.72" y1="183.19" x2="5257.83" y2="183.19" xlink:href="#linear-gradient"/>
  </defs>
  <g id="Layer_1" data-name="Layer 1">
    <g>
      <path class="cls-6" d="M45.42,135.39l11.68-.09c1.77,0,3.54.25,5.18.89.13,0,.26.12.38.12,1.9.38,3.94,1,5.59,2.26l.26-.25,43.65-43.67c3.04-2.9,4.69-7.08,4.69-11.26l.13-31.02c0-4.31-1.77-8.35-4.81-11.39-3.29-3.42-7.84-5.06-13.04-4.69-3.55.26-6.96,2.03-9.49,4.57l-7.85,7.85-11.91-11.91c-3.04-3.03-7.21-4.68-11.39-4.68s-8.36,1.65-11.4,4.68l-11.9,11.91-7.72-7.72c-6.33-6.45-17.21-6.59-24.06,1.13-2.28,2.66-3.41,6.21-3.41,9.63v31.65c0,4.18,1.77,8.36,4.8,11.26l40.61,40.74Z"/>
      <path class="cls-5" d="M116.98,221.51c0-4.31-1.77-8.36-4.69-11.4l-43.49-43.49c-.12-.12-.26-.25-.51-.38-.26.26-.38.38-.64.38-.89.64-1.67,1.24-2.68,1.62h-.13c-2.28,1.13-6.59,1.04-9.37,1.04l-9.37-.45L4.8,210.11c-2.91,2.92-4.68,7.09-4.68,11.4v31.52c0,3.55,1.13,6.96,3.42,9.62,6.83,7.72,17.6,7.6,24.05,1.27l7.72-7.72,11.9,11.9c2.91,2.92,7.08,4.69,11.27,4.69s8.49-1.77,11.39-4.69l12.03-12.03,7.85,7.85c2.54,2.66,5.82,4.31,9.37,4.56,5.32.38,9.75-1.27,13.16-4.68,3.04-3.04,4.69-7.09,4.69-11.4v-30.88Z"/>
      <path class="cls-4" d="M1135.46,346.46h-2.4c.75.12,1.51.12,2.4,0Z"/>
      <path class="cls-3" d="M72.82,142.11c2.57,3.18,3.52,5.81,3.52,10.15,0,1.9-.26,3.79-1.01,5.44,0,.26-.13.38-.13.63q.13.13-.12.26c-.12,1.01-2.45,3.76-2.58,3.89.13.12.26.25.38.38l43.34,43.34c2.92,3.04,7.09,4.68,11.27,4.68h31.02c4.31.13,8.36-1.64,11.4-4.68,3.41-3.29,5.06-7.84,4.68-13.04-.26-3.67-2.03-6.97-4.56-9.49l-7.85-7.85,11.9-11.9c3.04-3.04,4.68-7.21,4.82-11.39-.13-4.31-1.77-8.36-4.82-11.4l-11.9-11.9,7.73-7.73c6.46-6.45,6.58-17.21-1.14-24.05-2.66-2.28-6.21-3.42-9.62-3.42h-31.65c-4.22,0-8.26,1.68-11.24,4.66l-43.43,43.43ZM140.01,152.26l-16.19,16.07-9.77-9.76v-12.62l9.77-9.77,16.19,16.08Z"/>
      <path class="cls-1" d="M4633.33,346.46h-2.4c.75.12,1.51.12,2.4,0Z"/>
      <path class="cls-2" d="M6249.17,210l-98.36,98.36h-.25l-.11.12h-220.93l-69.75-69.63-48.36-48.35-48.23-48.24-79.33-79.32h.08l-.06-.06h113.99l112.8,112.8,45.45,45.45c.89.88,1.77,1.65,2.78,2.28.08.06.17.12.26.17.94.66,1.99,1.14,3.03,1.6.52.23,1.07.43,1.62.61.99.33,2.02.55,3.07.7.88.13,1.77.21,2.67.21.02,0,.05,0,.07,0h140.77s.05,0,.07,0c.92,0,1.84-.09,2.75-.23,1.59-.23,3.15-.65,4.6-1.3,1.36-.53,2.62-1.26,3.8-2.12.8-.58,1.56-1.21,2.27-1.93.01-.01.02-.02.03-.04l46.05-46.04,1.2-1.2s.02,0,.02,0h0c11.49,2.59,24.15-.65,33.19-9.69,14.08-14.08,14.08-36.93,0-51.01-14.08-14.07-36.93-14.07-51.02,0-9.03,9.03-12.27,21.81-9.7,33.42l-9.92,10.88-1.39,1.51-.76.76-.51.5h0s-.12.13-.12.13h0l-28.35,28.36h-125.21l-26.45-26.46,35.95-35.96h0l.03-.03h111.19c4.78.01,9.37-1.89,12.74-5.27l90.26-90.26c5.15-5.14,6.7-12.89,3.91-19.63-2.79-6.73-9.35-11.12-16.64-11.12h-120.35c-4.78,0-9.36,1.9-12.74,5.27l-85.51,85.52c-.08.06-.17.11-.25.17l-4.78,4.79c-.32.32-.62.65-.91.98l-39.72,38.72-.02-.02h0l-72.54-72.55h56.72c10.5,0,18.99-8.48,18.99-18.99s-8.48-18.99-18.99-18.99h-269.78v.03h0v-.03h-30.41v.07h-366.7c-5.56-.64-11.33,1.17-15.55,5.46l-89.25,89.26v-47.1c0-10.51-8.48-18.99-18.99-18.99s-19,8.47-19,18.99v85.07l-136.33,136.22v14.55h-.02v-14.62l-14.67,14.66h-104.7l119.38-119.23v.12l29.37-29.37c11.27,2.54,23.67-.63,32.53-9.49,13.8-13.8,13.8-36.2,0-50-13.8-13.8-36.21-13.8-50,0-8.87,8.87-12.03,21.4-9.5,32.79,0,0,0,0,0,0l-2.4,2.4v-.09l-173.13,173.13h-.02s-110.55,0-110.55,0l127.47-127.35c.72-.55,1.36-1.18,1.98-1.83.37-.39.73-.78,1.06-1.2,0,0,.01-.02.02-.03l120.25-120.25c7.47-7.46,7.47-19.37,0-26.83-7.47-7.47-19.49-7.47-26.83,0l-89.26,89.25h0s0-47.09,0-47.09c0-10.5-8.48-18.99-18.99-18.99s-18.99,8.48-18.99,18.99v85.07h0s-150.39,150.27-150.39,150.27h-221.69l-68.34-68.35s-.01-.01-.02-.02c-.38-.5-.76-.89-1.27-1.27,0,0-.01-.01-.02-.02l-47.07-47.08c-.38-.5-.76-.89-1.27-1.27l-47.6-47.47-80.01-80.14-31.91-31.9c-.62-.64-1.28-1.21-1.96-1.74.68.53,1.35,1.09,1.97,1.73l31.9,31.9h113.3s.01,0,.01,0l113.67,113.68c.88.89,1.77,1.65,2.79,2.28.92.69,1.95,1.17,2.99,1.64.1.04.2.09.3.13,2.28,1.01,4.81,1.52,7.35,1.52.06,0,.12,0,.19,0h39.94s0,0,0,0h0c.51,2.4,1.13,4.81,1.89,7.21,3.93,13.42,12.78,32.16,31.64,44.82,13.04,8.73,29.75,13.29,48.37,13.29h103.43c4.05,0,7.98-1.64,10.88-4.56,2.92-2.78,4.56-6.83,4.56-10.88V94.4c0-4.05-1.64-7.97-4.56-10.88-2.9-2.91-6.83-4.56-10.88-4.56h-103.43c-18.62,0-35.32,4.56-48.37,13.42-10.88,7.21-19.49,17.21-25.7,29.62-3.54,6.96-6.07,14.43-7.84,22.41h0s0,0,0,0h-32.28l-81.28-81.28h57.48c10.51,0,18.99-8.48,18.99-18.99s-8.48-18.99-18.99-18.99h-269.78v.5h0v-.5h-179.77c-5.69-.88-11.52.89-15.82,5.32l-46.46,46.46v-30.38c0-10.5-8.49-18.99-18.99-18.99s-18.99,8.48-18.99,18.99v68.36h0s-10.38,10.39-10.38,10.39v-30.51c0-10.5-8.49-18.99-18.99-18.99s-18.99,8.49-18.99,18.99v68.48h0s-10.26,10.13-10.26,10.13h0v-30.51c0-10.5-8.48-18.99-18.99-18.99s-18.99,8.48-18.99,18.99v68.49l-96.97,96.97h0s-.75,0-.75,0h-220.41l-245.6-245.48h0s0,0,0,0h115.45s.01,0,.01,0l102.79,102.8,48.24,48.36c7.34,7.47,19.37,7.47,26.83,0,7.47-7.34,7.47-19.37,0-26.83l-15.95-15.96h92.15l-.12.25h0l-38.62,38.61c-2.9,2.92-4.68,7.09-4.68,11.4v31.52c0,3.55,1.13,6.96,3.42,9.62,6.83,7.72,17.6,7.6,24.05,1.27l7.72-7.72,11.9,11.9c2.91,2.92,7.08,4.69,11.27,4.69s8.48-1.77,11.39-4.69l12.03-12.03,7.85,7.85c2.54,2.66,5.82,4.31,9.37,4.56,5.32.38,9.75-1.27,13.16-4.68,3.04-3.04,4.69-7.09,4.69-11.4v-30.88c0-4.31-1.77-8.36-4.69-11.4l-42.33-42.33c1.61-1.01,2.98-2.38,3.97-3.87,0,0,0,0,0,0l42.29,42.29c2.92,3.04,7.09,4.68,11.26,4.68h31.02c4.31.13,8.36-1.64,11.39-4.68,3.42-3.29,5.07-7.84,4.69-13.04-.26-3.67-2.03-6.97-4.56-9.49l-7.86-7.85,11.91-11.9c3.04-3.04,4.68-7.21,4.8-11.39-.12-4.31-1.76-8.36-4.8-11.4l-11.91-11.9,7.72-7.73c6.46-6.45,6.59-17.21-1.13-24.05-2.66-2.28-6.21-3.42-9.62-3.42h-31.66c-4.21,0-8.25,1.68-11.24,4.66l-42.12,42.12c-1.13-1.62-2.5-2.98-4.12-3.98l-.03.03,42.18-42.19c3.04-2.9,4.69-7.08,4.69-11.26l.13-31.02c0-4.31-1.77-8.35-4.82-11.39-3.29-3.42-7.84-5.06-13.04-4.69-3.55.26-6.96,2.03-9.5,4.57l-7.84,7.85-11.91-11.91c-3.04-3.03-7.21-4.68-11.39-4.68s-8.36,1.65-11.4,4.68l-11.9,11.91-7.72-7.72c-6.33-6.45-17.21-6.59-24.06,1.13-2.28,2.66-3.41,6.21-3.41,9.63v31.65c0,4.18,1.77,8.36,4.8,11.26l38.5,38.61h0l.12.12h0s-.01,0-.01,0l-.12-.12h-129.89s0,0,0,0l-70.25-70.39h55.2c10.51,0,18.99-8.48,18.99-18.99s-8.48-18.99-18.99-18.99h-269.78s-179.61,0-179.61,0c-4.44-.55-9.04.45-12.91,3.05-1.13.72-2.18,1.56-3.07,2.52l-70.4,70.38v-50.13c0-10.51-8.48-18.99-18.99-18.99s-18.99,8.48-18.99,18.99v88.12l-169.52,169.52h-.26l-.11.12h-220.93l-69.76-69.63-48.35-48.35-48.23-48.24-79.33-79.32h.08l-.06-.06h113.99l112.8,112.8,45.45,45.45c.89.88,1.77,1.65,2.78,2.28.15.11.31.21.46.31.89.59,1.86,1.03,2.83,1.46.48.21.99.4,1.49.56,1.07.36,2.18.61,3.31.76.84.12,1.7.2,2.55.2.02,0,.05,0,.07,0h140.76s.05,0,.07,0c.95,0,1.88-.09,2.81-.24,1.4-.21,2.77-.58,4.07-1.12.15-.06.31-.11.45-.17.27-.1.52-.24.78-.36,1.15-.52,2.23-1.17,3.24-1.93.72-.54,1.41-1.12,2.06-1.77.01-.01.02-.02.03-.04l46.05-46.04,1.2-1.2s.02,0,.02,0c11.5,2.59,24.15-.65,33.19-9.69,14.08-14.08,14.08-36.93,0-51.01-14.08-14.07-36.93-14.07-51.01,0-9.03,9.03-12.27,21.81-9.7,33.42l-9.92,10.89-1.39,1.51-.76.76-.51.5h0s-.12.13-.12.13h0l-28.36,28.36h-125.21l-26.45-26.46,35.95-35.96h0l.03-.03h111.19c4.78.01,9.37-1.89,12.74-5.27l90.26-90.26c5.16-5.14,6.7-12.89,3.91-19.63-2.78-6.73-9.35-11.12-16.64-11.12h-120.35c-4.77,0-9.36,1.9-12.74,5.27l-85.51,85.51c-.09.06-.17.11-.26.17l-4.78,4.79c-.32.32-.63.65-.92.99l-39.72,38.71-.02-.02-72.54-72.55h56.71c10.5,0,18.99-8.48,18.99-18.99s-8.49-18.99-18.99-18.99h-269.78v.03h0v-.03h-30.41v.07h-366.7c-5.56-.64-11.33,1.17-15.55,5.46l-89.25,89.26v-47.1c0-10.51-8.48-18.99-18.99-18.99s-19,8.47-19,18.99v85.07l-136.33,136.22v-.07l-14.68,14.66h-104.69l119.37-119.22v.11l29.37-29.37c11.27,2.54,23.67-.63,32.53-9.49,13.8-13.8,13.8-36.2,0-50-13.8-13.8-36.21-13.8-50.01,0-8.86,8.87-12.03,21.4-9.49,32.79t0,0l-2.38,2.38v-.08l-173.12,173.12h-.02s-110.55,0-110.55,0l127.47-127.35c.49-.38.95-.8,1.39-1.23.59-.57,1.14-1.16,1.65-1.81,0,0,.01-.02.02-.03l120.25-120.25c7.47-7.46,7.47-19.37,0-26.83-7.46-7.47-19.49-7.47-26.85,0l-89.25,89.25v-47.09c0-10.5-8.49-18.99-18.99-18.99s-18.99,8.48-18.99,18.99v85.07h0s-150.39,150.27-150.39,150.27h-221.69l-68.35-68.35s-.01-.01-.02-.02c-.38-.5-.76-.89-1.26-1.27-.01-.01-.03-.02-.04-.03l-47.05-47.06c-.38-.5-.76-.89-1.27-1.27l-47.6-47.47-80.01-80.14-31.9-31.9c-.88-.92-1.83-1.71-2.83-2.39,1,.68,1.95,1.47,2.84,2.39l31.91,31.9h113.3s.01,0,.01,0l113.67,113.68c.89.89,1.77,1.65,2.79,2.28.84.63,1.77,1.09,2.71,1.51.19.09.38.17.57.26,2.28,1.01,4.82,1.52,7.35,1.52.06,0,.12,0,.19,0h39.95s0,0,0,0h0c.51,2.4,1.13,4.81,1.9,7.21,3.93,13.42,12.78,32.16,31.64,44.82,13.04,8.73,29.75,13.29,48.37,13.29h103.43c4.05,0,7.98-1.64,10.89-4.56,2.92-2.78,4.55-6.83,4.55-10.88V94.4c0-4.05-1.64-7.97-4.55-10.88-2.91-2.91-6.84-4.56-10.89-4.56h-103.43c-18.62,0-35.33,4.56-48.37,13.42-10.88,7.21-19.49,17.21-25.7,29.62-3.54,6.96-6.07,14.43-7.84,22.41h0s0,0,0,0h-32.28l-81.28-81.28h57.48c10.5,0,18.99-8.48,18.99-18.99s-8.48-18.99-18.99-18.99h-269.78v.5h0v-.5h-179.77c-5.69-.88-11.52.89-15.82,5.32l-46.46,46.46v-30.38c0-10.5-8.49-18.99-18.99-18.99s-18.99,8.48-18.99,18.99v68.35h-.01s-10.38,10.39-10.38,10.39v-30.51c0-10.5-8.48-18.99-18.99-18.99s-18.99,8.49-18.99,18.99v68.48h0s-10.26,10.14-10.26,10.14h0v-30.51c0-10.5-8.48-18.99-18.99-18.99s-18.99,8.48-18.99,18.99v68.49l-96.97,96.97h0s-.75,0-.75,0h-25.98v37.98h34.89s.02,0,.02,0h265.02c10.52,0,18.99-8.49,18.99-18.99s-8.47-19-18.99-19h-51.78l75.07-75.07h29.37l74.95,74.95c3.42,3.42,8.1,5.32,12.78,5.32h40.39c4.81,0,9.49-1.9,12.91-5.32l40.26-40.39c3.41-3.41,5.31-7.97,5.31-12.78s-1.9-9.37-5.31-12.78l-27.48-27.6,27.48-27.47c3.41-3.41,5.31-7.98,5.31-12.92s-1.77-9.36-5.31-12.78l-40.26-40.39c-3.42-3.42-7.98-5.32-12.91-5.32h-40.39c-4.68,0-9.36,1.9-12.78,5.32l-74.19,74.19h0s-37.97,0-37.97,0h0c-1.19,0-2.33.12-3.43.32-1.36.25-2.66.64-3.91,1.19-1.13.38-2.15,1.02-3.16,1.65h-.13c-1.01.76-1.9,1.51-2.79,2.4-.01.01-.02.02-.03.04l-107.45,107.45h-114.07l75.7-75.7,48.23-48.24,48.05-48.05s.04-.03.06-.05c.13,0,.22-.03.29-.1.06-.06.1-.16.1-.28l72.91-72.79h0s166.22,0,166.22,0l101.27,101.28v66.34c0,10.5,8.48,18.99,18.99,18.99s19-8.48,19-18.99v-28.36l10.37,10.38h0v66.22c0,10.5,8.49,18.99,18.99,18.99s18.99-8.49,18.99-18.99v-28.23h0s0,0,0,0h0s10.38,10.38,10.38,10.38v66.08c0,10.51,8.48,19,18.99,19s19-8.49,19-19v-28.1l39.9,39.9c.05.06.1.13.15.2l1.7,1.7c.16.16.33.3.5.45l.16.16c2.12,2.12,4.59,3.38,7.23,4.13.19.06.38.1.58.16.14.04.29.07.43.11.63.16,1.27.28,1.92.37.09.01.18.03.27.04.21.03.41.06.62.08,2,.24,4.04.3,6.04.3l227.48-.26h335.38v-.02h326.43c10.51,0,18.99-8.48,18.99-18.99s-8.47-19-18.99-19h-122.01l65.93-65.93h133.71l97.91,97.91c3.51,3.51,8.2,5.46,13.18,5.46s9.69-1.99,13.15-5.46l20.73-20.73c3.47-3.45,5.46-8.25,5.46-13.15v-2.31l2.01.19h41.56c4.97,0,9.65-1.93,13.17-5.44l20.73-20.75c3.52-3.51,5.45-8.2,5.45-13.14s-1.94-9.66-5.45-13.18l-7.57-7.56,7.45-7.46s.08-.07.12-.11c3.51-3.52,5.44-8.2,5.44-13.17s-1.94-9.65-5.44-13.16c-.81-.81-1.68-1.52-2.59-2.15l-5.41-5.42,7.56-7.57c3.52-3.52,5.45-8.21,5.45-13.16s-1.94-9.65-5.45-13.17l-20.74-20.73c-3.52-3.51-8.21-5.44-13.16-5.44h-41.47l-2.11.18v-2.3c0-4.98-1.94-9.65-5.45-13.16l-20.74-20.74c-3.47-3.47-8.27-5.45-13.15-5.45s-9.66,1.94-13.17,5.45l-97.57,97.77h-141.4s-.04,0-.06,0c-1.05,0-2.09.07-3.1.27-.58.11-1.16.26-1.71.49-.88.13-1.76.38-2.52.76-.34.14-.67.31-1,.47-1.81.88-3.58,2.08-5.08,3.58-.01.01-.02.02-.03.03l-98.31,98.31h-111.65l128-127.86.02-.02c1.11-.86,2.09-1.84,2.96-2.95l.06-.06s.02-.02.03-.04l114.56-114.56h361.81v-.08h21.33l97.6,97.6h0v70.26c0,10.51,8.48,19,18.99,19s18.99-8.48,18.99-19v-32.28h0s0,0,0,0l10.38,10.26v-1.77s0-.04,0-.06v72.09c0,10.52,8.48,18.99,18.99,18.99s18.99-8.47,18.99-18.99v-72.03c0-5.19-2.14-10-5.57-13.42-3.42-3.42-8.23-5.57-13.42-5.57-9.56,0-17.42,7.02-18.76,16.21h0c1.34-9.18,9.21-16.21,18.77-16.21,5.18,0,10,2.16,13.41,5.57,3.42,3.42,5.58,8.23,5.58,13.42v39.76l10.38,10.38v70.14c0,10.5,8.48,18.99,18.99,18.99s18.99-8.49,18.99-18.99v-72.04c0-1.95-.3-3.85-.86-5.64.56,1.79.87,3.68.87,5.63v39.88l46.21,46.21c2.25,2.25,4.8,3.53,7.55,4.26,1.85.6,3.82.93,5.87.93h237.63,0s12.16,0,12.16,0h153.06c-.06,0-.12,0-.18,0,.06,0,.11,0,.17,0h0c.2,0,.4-.02.61-.03.16,0,.31-.01.47-.02-.36.02-.71.05-1.07.05h99c10.5,0,18.99-8.47,18.99-18.99s-8.49-18.99-18.99-18.99h-53.17l-32.41,32.41c-.06.06-.12.11-.17.17.06-.06.11-.11.17-.17l32.41-32.41h0,0s83.3-83.43,83.3-83.43h0s0,0,0,0l40.16,40.16s.02-.05.02-.07l2.23,2.21c.86.86,1.79,1.62,2.77,2.28v31.37c0,5.91,2.34,11.56,6.51,15.73,4.18,4.17,9.84,6.52,15.73,6.52h37.06c12.29-.01,22.24-9.97,22.24-22.25v-37.06c0-12.29-9.96-22.23-22.24-22.23h-34.12c-.35-.4-.71-.8-1.1-1.19l-32.41-32.41v.09l-10-10,15.45-15.44h61.78l67.6,67.85h0v96.87c0,10.43,8.45,18.89,18.88,18.89s18.88-8.46,18.88-18.89v-21.38h26.12v21.38c0,10.43,8.45,18.89,18.89,18.89s18.88-8.45,18.88-18.89v-21.38h22.18c10.43,0,18.88-8.45,18.88-18.88s-8.45-18.89-18.88-18.89h-22.18v-26.91h22.18c10.43,0,18.88-8.45,18.88-18.88s-8.45-18.88-18.88-18.88h-97s-40.77-40.89-40.77-40.89h20.64c10.51,0,18.99-8.48,18.99-18.99s-8.47-19-18.99-19h-141.28c-5.7-.88-11.52,1.01-15.82,5.32l-34.69,34.69-123.56,123.69h0s-112.66,0-112.66,0h0l148.63-148.76,96.98-96.84h166.09l-2.36-2.36,2.36,2.36h0l146.47,146.35,131.92,131.91c2.39,2.39,5.04,3.69,7.96,4.4,1.73.51,3.55.8,5.45.8h236.8s.02,0,.02,0h265.02c10.52,0,18.99-8.49,18.99-18.99s-8.47-19-18.99-19h-51.78l75.07-75.07h29.37l74.95,74.95c3.42,3.42,8.1,5.32,12.78,5.32h40.38c4.82,0,9.5-1.9,12.92-5.32l40.26-40.39c3.41-3.41,5.31-7.97,5.31-12.78s-1.9-9.37-5.31-12.78l-27.48-27.6,27.48-27.47c3.41-3.41,5.31-7.98,5.31-12.92s-1.77-9.36-5.31-12.78l-40.26-40.39c-3.42-3.42-7.98-5.32-12.92-5.32h-40.38c-4.68,0-9.36,1.9-12.78,5.32l-74.19,74.19h0s-37.97,0-37.97,0h0c-1.03,0-2.02.1-2.98.25-1.52.24-2.97.65-4.36,1.26-1.13.38-2.15,1.02-3.16,1.65h-.13c-1.01.76-1.9,1.51-2.78,2.4-.01.01-.02.02-.03.04l-107.45,107.45h-114.07l75.71-75.7,48.23-48.24h0s48.08-48.09,48.08-48.09c0,0,.01-.01.02-.02.15,0,.25-.06.31-.15.04-.06.08-.13.08-.23l72.92-72.79h0s166.22,0,166.22,0l101.28,101.28v66.34c0,10.5,8.48,18.99,18.99,18.99s19-8.48,19-18.99v-28.36l10.37,10.38h0v66.22c0,10.5,8.48,18.99,18.99,18.99s18.99-8.49,18.99-18.99v-28.24h0s0,0,0,0h0s10.38,10.38,10.38,10.38v66.08c0,10.51,8.48,19,18.99,19s18.99-8.49,18.99-19v-28.1h0s0,0,0,0l39.91,39.92c.05.06.09.13.15.19l1.7,1.7c.16.16.33.29.49.44l.16.17c2.12,2.12,4.6,3.38,7.23,4.13.19.06.39.1.58.16.14.04.29.07.43.11.64.16,1.27.28,1.92.37.09.01.18.03.27.04.21.03.41.06.62.08,2,.24,4.04.3,6.05.3l227.48-.26h335.38v-.02h326.44c10.52,0,18.99-8.48,18.99-18.99s-8.47-19-18.99-19h-122l65.93-65.93h133.71l97.91,97.91c3.52,3.51,8.2,5.46,13.18,5.46s9.69-1.99,13.16-5.46l20.73-20.73c3.47-3.45,5.46-8.25,5.46-13.15v-2.31l2.01.19h41.56c4.97,0,9.65-1.93,13.17-5.44l20.73-20.75c3.52-3.51,5.45-8.2,5.45-13.14s-1.94-9.66-5.45-13.18l-7.57-7.56,7.42-7.43c.05-.05.11-.09.16-.14,3.49-3.52,5.44-8.2,5.44-13.17s-1.95-9.65-5.44-13.16c-.81-.81-1.68-1.52-2.6-2.16l-5.41-5.42,7.57-7.57c3.52-3.52,5.45-8.21,5.45-13.16s-1.94-9.65-5.45-13.17l-20.74-20.73c-3.53-3.51-8.2-5.44-13.16-5.44h-41.47l-2.11.18v-2.3c0-4.98-1.94-9.65-5.45-13.16l-20.74-20.74c-3.46-3.47-8.27-5.45-13.15-5.45s-9.66,1.94-13.17,5.45l-97.57,97.77h-141.4s-.04,0-.06,0c-1.04,0-2.07.07-3.08.26-.59.11-1.17.26-1.74.49-.88.13-1.77.38-2.53.76-.27.11-.54.25-.8.38-1.88.88-3.73,2.12-5.28,3.67-.01.01-.02.02-.03.03l-98.31,98.31h-111.65l128-127.86h.01c1.12-.88,2.1-1.87,2.98-2.98l.05-.05s.02-.02.03-.04l114.56-114.56h361.81v-.08h21.34l97.6,97.6h0s0,.01,0,.01v70.25c0,10.51,8.48,19,18.99,19s18.99-8.48,18.99-19v-72.03c0-5.32-2.14-10-5.57-13.42-.65-.65-1.35-1.23-2.09-1.78.74.55,1.45,1.13,2.09,1.78,3.41,3.42,5.57,8.1,5.57,13.42v39.75l10.38,10.26v-1.77s0-.02,0-.04v72.07c0,10.52,8.48,18.99,18.99,18.99s18.99-8.47,18.99-18.99v-72.03c0-5.19-2.14-10-5.57-13.42-3.42-3.42-8.23-5.57-13.42-5.57-9.56,0-17.42,7.02-18.76,16.21h0c1.34-9.18,9.21-16.21,18.77-16.21,5.19,0,10.01,2.16,13.42,5.57,3.42,3.42,5.57,8.23,5.57,13.42v39.76l10.38,10.38v70.14c0,10.5,8.48,18.99,18.99,18.99s18.99-8.49,18.99-18.99v-32.17h0s46.21,46.21,46.21,46.21c2.25,2.25,4.79,3.53,7.54,4.26,1.85.6,3.82.93,5.87.93h237.63,0s12.15,0,12.15,0h77.34v-37.97h-44.8l44.81-44.85v-53.64ZM4476.34,163.27v-.76l.25-3.16c.38-2.66,1.02-6.58,2.29-11.01,2.28-7.48,6.96-17.85,16.83-24.31,7.21-4.81,16.08-7.09,27.09-7.09h75.45v92.8h-75.45c-10.5,0-18.99-2.02-25.96-6.33-5.44-3.41-9.86-7.97-13.29-14.05-6.83-11.77-7.22-25.57-7.22-25.7v-.38ZM3621.67,136.18l16.21,16.08-16.21,16.08-16.08-16.08,16.08-16.08ZM3572.3,217.84l-16.08,16.08-16.08-16.08,16.08-16.2,16.08,16.2ZM3540.01,87.06l16.08-16.2,16.2,16.2-16.2,16.08-16.08-16.08ZM2579.06,30.7h76.26l-60.26,60.26-75.23.34,59.23-60.6ZM978.48,163.27v-.76l.25-3.16c.38-2.66,1.02-6.58,2.29-11.01,2.28-7.48,6.96-17.85,16.83-24.31,7.21-4.81,16.08-7.09,27.09-7.09h75.45v92.8h-75.45c-10.5,0-18.99-2.02-25.96-6.33-5.44-3.41-9.86-7.97-13.29-14.05-6.83-11.77-7.22-25.57-7.22-25.7v-.38ZM561.97,152.13h25.32l22.15,22.15-27.47,27.6c-3.41,3.41-5.32,7.98-5.32,12.78s1.91,9.37,5.32,12.79l27.6,27.59-22.29,22.28h-25.32l-62.67-62.66,62.67-62.54ZM1940.16,224.73h0v-1.07h.05c.27-4.96,2.36-10.15,5.42-13.22l20.72-20.73c4.44-4.43,10.78-6.33,16.94-5.07,3.59.74,6.83,2.49,9.4,5.07l20.73,20.73c3.68,3.69,5.18,9.18,5.41,13.21h0s0,0,0,0h.05v1.07h0v1.07h-.05c-.24,4.15-1.93,7.63-5.4,11.12l-20.74,20.59c-2.59,2.58-5.82,4.33-9.51,5.09l-3.65.37c-4.91,0-9.71-1.99-13.17-5.46l-20.73-20.73c-3.53-3.53-5.17-6.87-5.41-10.98h-.05v-1.07ZM2262.25,145.3c-.34-.34-.7-.65-1.06-.96.36.31.72.62,1.06.96.43.43.83.88,1.22,1.34-.39-.47-.79-.91-1.22-1.34ZM2267.82,158.72c0-.25-.03-.48-.04-.73,0,.24.04.48.04.72h0ZM2326.65,253.46h0c.25-2.85,1.14-5.5,2.51-7.84-1.37,2.34-2.25,5-2.51,7.84ZM2358.97,241.77c-.38-.38-.78-.73-1.18-1.08.41.35.81.7,1.19,1.08.17.17.31.35.48.52-.16-.17-.31-.36-.48-.53ZM2673.7,341.02c-3.04,3.04-6.84,4.94-10.88,5.32,4.05-.38,7.84-2.28,10.88-5.32l.12-.12-.12.13ZM3042.09,265.93c9.14,0,16.56,7.41,16.56,16.56s-7.41,16.56-16.56,16.56-16.57-7.41-16.57-16.56,7.42-16.56,16.57-16.56ZM3165.58,261.43h26.12v26.91h-26.12v-26.91ZM2813.59,340.89c.42.44.87.84,1.32,1.23-.46-.38-.9-.79-1.32-1.22-.13-.13-.25-.27-.38-.41.13.13.25.27.38.4ZM2810.71,337.14c.59,1,1.26,1.95,2.04,2.84-1-1.14-1.84-2.37-2.53-3.68.15.28.33.56.49.83ZM3109.01,51.79c-1.04-2.41-1.59-4.98-1.59-7.53,0-3.07.78-6.18,2.3-9-1.51,2.81-2.29,5.93-2.29,9,0,2.54.54,5.11,1.58,7.52ZM3126.42,25.29h0c-2.29,0-4.55.42-6.69,1.23-.65.25-1.29.53-1.91.84,2.67-1.37,5.61-2.08,8.6-2.08h0ZM4059.84,152.13h25.32l22.15,22.15-27.47,27.6c-3.41,3.41-5.32,7.98-5.32,12.78s1.91,9.37,5.32,12.79l27.59,27.59-22.27,22.28h-25.32l-62.67-62.66,62.67-62.54ZM5438.04,224.73h0c0-.36.03-.72.05-1.07h.05s-.05,0-.05,0c.27-4.96,2.36-10.15,5.42-13.21l20.72-20.73c4.44-4.43,10.78-6.33,16.94-5.07,3.59.74,6.83,2.49,9.4,5.07l20.73,20.73c3.68,3.69,5.18,9.18,5.41,13.21h-.06,0s.06,0,.06,0c.02.36.05.73.05,1.07h0c0,.19-.02.37-.03.56l.03.51h-.05c-.25,4.15-1.93,7.63-5.4,11.12l-20.74,20.59c-2.59,2.58-5.82,4.33-9.5,5.09l-3.65.37c-4.91,0-9.71-1.99-13.18-5.46l-20.73-20.73c-3.53-3.53-5.18-6.87-5.42-10.98h-.05l.03-.51c0-.19-.03-.37-.03-.56ZM5843.43,236.19h0c.57,0,1.13.04,1.68.08-.55-.05-1.11-.08-1.68-.08ZM5862.42,255.19c0-1.84-.28-3.62-.78-5.32.5,1.69.78,3.48.78,5.31h0ZM6159.7,346.44l.11-.1h0l-.11.1ZM6171.7,340.9l-.13.13c-3.04,3.04-6.83,4.94-10.88,5.32,4.05-.38,7.84-2.28,10.88-5.32l.12-.12,30.24-30.24h0l-30.24,30.24Z"/>
    </g>
  </g>
</svg>