<svg width="535" height="269" viewBox="0 0 535 269" fill="none" xmlns="http://www.w3.org/2000/svg">
<path d="M110.01 190.899L91.2657 166.338L91.3004 166.315L61.6397 127.449C61.4778 127.23 61.2928 127.045 61.1193 126.837L59.0263 124.096C57.6849 122.338 56.9448 120.164 56.9448 117.956V66.3355C56.9448 57.2465 49.5557 49.8573 40.4666 49.8573C31.3776 49.8573 24 57.2349 24 66.3239V154.277C24 157.862 25.2026 161.412 27.3766 164.256L58.9107 205.654C60.2405 207.412 60.9805 209.586 60.9805 211.795V268.988H113.399V200.89C113.399 197.305 112.196 193.755 110.022 190.899H110.01ZM107.039 262.628H67.329V211.795C67.329 208.21 66.1379 204.66 63.964 201.815L32.4299 160.417C31.1001 158.671 30.36 156.486 30.36 154.289V66.3239C30.36 60.7387 34.9045 56.2057 40.4782 56.2057C46.0519 56.2057 50.5964 60.7503 50.5964 66.3239V117.944C50.5964 119.366 50.793 120.789 51.1514 122.153C48.3877 122.119 45.6009 122.94 43.1725 124.686C40.1891 126.837 38.258 130.017 37.7376 133.659C37.2173 137.302 38.177 140.898 40.4319 143.789L69.7342 181.313L74.7413 177.404L45.439 139.88C44.248 138.354 43.7507 136.469 44.0167 134.561C44.2942 132.653 45.3002 130.976 46.8729 129.843C49.8679 127.692 53.9152 128.224 56.2857 130.988L104.946 194.75C106.287 196.508 107.015 198.681 107.015 200.89V262.64L107.039 262.628Z" fill="#7A7A7B"/>
<path d="M134.04 190.899L152.784 166.338L152.75 166.315L182.41 127.449C182.572 127.23 182.757 127.045 182.931 126.837L185.024 124.096C186.365 122.338 187.094 120.164 187.094 117.956V66.3355C187.094 57.2465 194.483 49.8573 203.572 49.8573C212.661 49.8573 220.05 57.2465 220.05 66.3355V154.289C220.05 157.873 218.847 161.423 216.685 164.268L185.151 205.666C183.821 207.424 183.081 209.598 183.081 211.806V269H130.663V200.902C130.663 197.317 131.866 193.767 134.04 190.911V190.899ZM137.012 262.628H176.721V211.795C176.721 208.21 177.912 204.66 180.086 201.815L211.62 160.417C212.95 158.671 213.69 156.486 213.69 154.289V66.3239C213.69 60.7387 209.146 56.2057 203.572 56.2057C197.998 56.2057 193.454 60.7503 193.454 66.3239V117.944C193.454 119.366 193.257 120.789 192.887 122.153C195.651 122.119 198.438 122.94 200.866 124.686C203.849 126.837 205.781 130.017 206.301 133.659C206.821 137.302 205.862 140.898 203.607 143.789L174.304 181.313L169.297 177.404L198.6 139.88C199.791 138.354 200.288 136.469 200.022 134.561C199.744 132.653 198.738 130.976 197.166 129.843C194.171 127.692 190.123 128.224 187.753 130.988L139.093 194.75C137.752 196.508 137.012 198.681 137.012 200.89V262.64V262.628Z" fill="#7A7A7B"/>
<path d="M177.276 116.314C177.507 110.231 174.813 104.762 170.488 101.211C167.771 98.5056 162.671 92.6081 162.671 86.4678C162.671 80.3275 167.459 74.9504 170.234 72.2214C174.674 68.7061 177.473 63.2018 177.288 57.0499C176.987 47.5561 169.378 39.6813 159.896 39.0916C149.096 38.4209 140.122 46.9895 140.122 57.6396C140.122 63.5487 142.886 68.8101 147.188 72.2214C149.963 74.9504 154.75 80.5241 154.75 86.4678C154.75 92.4115 149.651 98.494 146.933 101.211C142.782 104.623 140.134 109.792 140.134 115.585C140.134 126.247 149.107 134.804 159.908 134.133C169.332 133.543 176.929 125.75 177.299 116.314H177.276Z" fill="#3C3D6B"/>
<path d="M132.271 73.2043C136.734 69.0645 138.7 63.2943 138.156 57.7321C138.156 53.893 138.711 46.1107 143.048 41.7743C147.245 37.5767 154.577 37.0216 158.462 37.0448C164.094 37.7039 169.956 35.7843 174.177 31.3092C180.676 24.3826 180.861 13.4318 174.582 6.3086C167.412 -1.80908 155.016 -2.08661 147.488 5.44132C143.314 9.6158 141.545 15.2936 142.169 20.74C142.192 24.637 141.637 31.9568 137.439 36.1544C133.103 40.4907 125.321 41.0574 121.482 41.0458C116.139 40.5254 110.612 42.3062 106.518 46.3998C98.9788 53.9393 99.2679 66.3355 107.386 73.505C114.462 79.7609 125.344 79.6221 132.282 73.2043H132.271Z" fill="#C62127"/>
<path d="M66.9127 70.2671C71.0525 74.7307 76.8228 76.6965 82.3849 76.153C86.224 76.153 94.0063 76.7081 98.3427 81.0445C102.54 85.2421 103.095 92.5734 103.072 96.4588C102.413 102.09 104.333 107.953 108.808 112.174C115.734 118.673 126.685 118.858 133.808 112.579C141.926 105.409 142.204 93.0128 134.676 85.4849C130.501 81.3104 124.823 79.5412 119.377 80.1656C115.48 80.1888 108.16 79.6337 103.963 75.4361C99.765 71.2385 99.0597 63.3174 99.0712 59.4783C99.5916 54.1359 97.8108 48.6084 93.7173 44.5149C86.1778 36.9754 73.7815 37.2645 66.6121 45.3822C60.3561 52.4591 60.4949 63.3405 66.9127 70.2787V70.2671Z" fill="#C62127"/>
<path d="M105.437 43.7638C111.272 41.3467 114.043 34.6568 111.626 28.8214C109.209 22.986 102.519 20.2149 96.6839 22.632C90.8486 25.0491 88.0775 31.7391 90.4946 37.5745C92.9117 43.4099 99.6016 46.1809 105.437 43.7638Z" fill="#FDC010"/>
<path d="M129.68 141.118C135.996 141.118 141.117 135.997 141.117 129.681C141.117 123.365 135.996 118.245 129.68 118.245C123.364 118.245 118.244 123.365 118.244 129.681C118.244 135.997 123.364 141.118 129.68 141.118Z" fill="#3C3D6B"/>
<path d="M259.241 167V101.545H282.572C287.664 101.545 291.883 102.472 295.228 104.326C298.574 106.18 301.077 108.715 302.739 111.933C304.401 115.129 305.232 118.729 305.232 122.735C305.232 126.762 304.39 130.384 302.707 133.602C301.045 136.798 298.531 139.333 295.164 141.208C291.819 143.062 287.611 143.989 282.54 143.989H266.496V135.615H281.645C284.863 135.615 287.473 135.061 289.476 133.953C291.478 132.824 292.949 131.29 293.886 129.351C294.824 127.412 295.292 125.207 295.292 122.735C295.292 120.263 294.824 118.069 293.886 116.151C292.949 114.234 291.468 112.732 289.444 111.645C287.441 110.558 284.799 110.015 281.517 110.015H269.117V167H259.241ZM369.64 101.545V167H360.563L327.292 118.996H326.685V167H316.81V101.545H325.95L359.253 149.614H359.86V101.545H369.64ZM438.41 122.831H428.439C428.055 120.7 427.341 118.825 426.297 117.206C425.253 115.587 423.975 114.212 422.462 113.083C420.949 111.954 419.255 111.102 417.38 110.526C415.527 109.951 413.556 109.663 411.468 109.663C407.696 109.663 404.319 110.612 401.336 112.508C398.375 114.404 396.031 117.185 394.305 120.849C392.601 124.514 391.748 128.989 391.748 134.273C391.748 139.599 392.601 144.095 394.305 147.76C396.031 151.425 398.385 154.195 401.368 156.07C404.351 157.945 407.707 158.882 411.436 158.882C413.503 158.882 415.463 158.605 417.316 158.051C419.191 157.476 420.885 156.634 422.398 155.526C423.911 154.418 425.189 153.065 426.233 151.467C427.299 149.848 428.034 147.994 428.439 145.906L438.41 145.938C437.878 149.156 436.844 152.117 435.31 154.823C433.797 157.508 431.848 159.83 429.461 161.79C427.096 163.729 424.39 165.232 421.343 166.297C418.297 167.362 414.973 167.895 411.372 167.895C405.704 167.895 400.655 166.553 396.223 163.868C391.791 161.162 388.297 157.295 385.74 152.266C383.204 147.238 381.936 141.24 381.936 134.273C381.936 127.284 383.215 121.286 385.772 116.279C388.329 111.251 391.823 107.394 396.255 104.71C400.686 102.004 405.726 100.651 411.372 100.651C414.845 100.651 418.083 101.151 421.088 102.153C424.113 103.133 426.83 104.582 429.238 106.499C431.645 108.396 433.637 110.718 435.214 113.467C436.791 116.194 437.856 119.315 438.41 122.831ZM504.592 122.831H494.62C494.237 120.7 493.523 118.825 492.479 117.206C491.435 115.587 490.156 114.212 488.644 113.083C487.131 111.954 485.437 111.102 483.562 110.526C481.708 109.951 479.737 109.663 477.649 109.663C473.878 109.663 470.501 110.612 467.518 112.508C464.556 114.404 462.213 117.185 460.487 120.849C458.782 124.514 457.93 128.989 457.93 134.273C457.93 139.599 458.782 144.095 460.487 147.76C462.213 151.425 464.567 154.195 467.55 156.07C470.533 157.945 473.889 158.882 477.617 158.882C479.684 158.882 481.644 158.605 483.498 158.051C485.373 157.476 487.067 156.634 488.58 155.526C490.093 154.418 491.371 153.065 492.415 151.467C493.48 149.848 494.215 147.994 494.62 145.906L504.592 145.938C504.059 149.156 503.026 152.117 501.492 154.823C499.979 157.508 498.029 159.83 495.643 161.79C493.278 163.729 490.572 165.232 487.525 166.297C484.478 167.362 481.154 167.895 477.553 167.895C471.886 167.895 466.836 166.553 462.404 163.868C457.973 161.162 454.478 157.295 451.921 152.266C449.386 147.238 448.118 141.24 448.118 134.273C448.118 127.284 449.397 121.286 451.953 116.279C454.51 111.251 458.004 107.394 462.436 104.71C466.868 102.004 471.907 100.651 477.553 100.651C481.026 100.651 484.265 101.151 487.269 102.153C490.295 103.133 493.012 104.582 495.419 106.499C497.827 108.396 499.819 110.718 501.396 113.467C502.973 116.194 504.038 119.315 504.592 122.831Z" fill="black"/>
</svg>
