<svg width="569" height="269" viewBox="0 0 569 269" fill="none" xmlns="http://www.w3.org/2000/svg">
<path d="M96.1314 246.207C99.3536 246.207 102.518 245.977 105.616 245.528L84.2944 113.752C53.0763 119.336 29.3831 146.634 29.3831 179.459C29.3831 216.327 59.2721 246.207 96.1314 246.207Z" fill="black"/>
<path d="M24.4589 189.068C24.153 191.774 24 194.537 24 197.329C24 207.368 26.027 216.93 29.6891 225.631L34.7662 218.985C29.297 210.093 25.6828 199.949 24.4589 189.077V189.068Z" fill="black"/>
<path d="M39.6999 225.153L33.8579 233.289C35.9997 236.875 38.4378 240.26 41.1437 243.415L47.3682 233.318C44.605 230.794 42.0425 228.069 39.6999 225.162V225.153Z" fill="black"/>
<path d="M47.3777 249.792C50.7816 252.814 54.4818 255.51 58.4116 257.862L64.3684 244.543C60.6681 242.774 57.1399 240.709 53.8221 238.367L47.3872 249.783L47.3777 249.792Z" fill="black"/>
<path d="M96.4374 266.343C79.3989 263.255 83.2809 251.169 83.2809 251.169C80.2117 250.605 77.2094 249.85 74.2931 248.913C74.0923 248.846 73.882 248.951 73.7959 249.142L68.126 262.7C68.04 262.901 68.1356 263.14 68.3459 263.226C77.0277 266.869 86.5509 268.887 96.5617 268.887C96.8007 268.887 96.9824 268.676 96.9537 268.447L96.7625 266.697C96.7434 266.515 96.6095 266.372 96.4278 266.343H96.4374Z" fill="black"/>
<path d="M96.4469 252.556L87.8321 251.829C87.8321 251.829 87.7174 254.535 88.7404 256.868L96.6095 253.713C97.1927 253.474 97.0684 252.613 96.4374 252.565L96.4469 252.556Z" fill="black"/>
<path d="M133.201 138.956C130.151 137.933 127.072 137.14 123.993 136.576L102.251 268.284C133.622 272.931 164.773 254.602 175.233 223.489C186.975 188.542 168.158 150.698 133.211 138.956H133.201Z" fill="black"/>
<path d="M182.949 215.945C184.106 213.469 185.129 210.916 186.019 208.267C189.212 198.753 190.34 189.049 189.633 179.631L182.701 184.316C185.053 194.48 185.244 205.255 182.949 215.945Z" fill="black"/>
<path d="M179.995 176.887L188.122 171.035C187.233 166.952 185.999 162.965 184.441 159.112L175.329 166.704C177.146 169.974 178.704 173.377 180.004 176.887H179.995Z" fill="black"/>
<path d="M180.569 151.08C178.302 147.131 175.664 143.393 172.68 139.922L162.794 150.65C165.739 153.499 168.426 156.588 170.825 159.858L180.569 151.08Z" fill="black"/>
<path d="M139.33 119.776C154.504 128.123 146.97 138.344 146.97 138.344C149.695 139.855 152.305 141.528 154.772 143.345C154.944 143.469 155.173 143.441 155.317 143.288L165.002 132.244C165.146 132.072 165.136 131.823 164.964 131.671C157.898 125.456 149.503 120.503 140.018 117.319C139.798 117.242 139.559 117.386 139.502 117.615L139.12 119.336C139.081 119.508 139.167 119.69 139.32 119.776H139.33Z" fill="black"/>
<path d="M134.922 132.837L142.849 136.27C142.849 136.27 143.814 133.745 143.585 131.202L135.113 131.69C134.482 131.728 134.329 132.588 134.913 132.837H134.922Z" fill="black"/>
<path d="M105.616 30.5775H71.1475L105.616 245.538L142.198 30.5775H105.616Z" fill="#F2AE1D"/>
<path d="M71.9124 35.3391H25.5873V109.717H83.8451L71.9124 35.3391Z" fill="#2398C4"/>
<path d="M141.386 35.3391H186.267V109.717H128.726L141.386 35.3391Z" fill="#E21D3E"/>
<path d="M81.6745 23.2438H77.238V6.52089C75.6126 8.04116 73.7099 9.15984 71.5107 9.88651V5.86115C72.6677 5.47869 73.9298 4.76158 75.2875 3.70983C76.6452 2.64851 77.5727 1.41508 78.0794 0.009552H81.6841V23.2534L81.6745 23.2438Z" fill="#231F20"/>
<path d="M88.4057 17.8894L92.6988 17.4114C92.8039 18.2815 93.0812 18.9316 93.5211 19.3523C93.9609 19.773 94.5441 19.9834 95.2708 19.9834C96.1887 19.9834 96.9632 19.5627 97.6038 18.7213C98.2444 17.8799 98.6555 16.1301 98.8372 13.4816C97.7185 14.7724 96.3226 15.4226 94.6493 15.4226C92.8326 15.4226 91.255 14.7246 89.9355 13.3191C88.616 11.9135 87.9563 10.0873 87.9563 7.83081C87.9563 5.57431 88.6543 3.5951 90.0503 2.15132C91.4462 0.717107 93.2247 0 95.376 0C97.7185 0 99.6499 0.908336 101.151 2.72501C102.652 4.54168 103.408 7.52485 103.408 11.6841C103.408 15.8433 102.624 18.9699 101.055 20.8439C99.4874 22.718 97.4412 23.655 94.9266 23.655C93.1195 23.655 91.6566 23.1769 90.5379 22.2112C89.4192 21.2455 88.7021 19.8113 88.3866 17.8894H88.4057ZM98.4452 8.19415C98.4452 6.75993 98.1201 5.65081 97.4604 4.86677C96.8006 4.07317 96.0453 3.68115 95.1752 3.68115C94.3051 3.68115 93.674 4.00624 93.129 4.65642C92.584 5.30659 92.3163 6.36791 92.3163 7.84037C92.3163 9.31284 92.6127 10.4315 93.196 11.1295C93.7888 11.8275 94.525 12.1813 95.4047 12.1813C96.2843 12.1813 96.9727 11.8466 97.556 11.1678C98.1392 10.4985 98.4356 9.50406 98.4356 8.20371L98.4452 8.19415Z" fill="#231F20"/>
<path d="M106.353 17.2871L110.77 16.8281C110.894 17.8321 111.267 18.6161 111.889 19.2089C112.51 19.7922 113.227 20.0886 114.04 20.0886C114.967 20.0886 115.751 19.7157 116.392 18.9603C117.033 18.205 117.358 17.0767 117.358 15.5565C117.358 14.1318 117.042 13.0705 116.402 12.3629C115.761 11.6554 114.939 11.3016 113.916 11.3016C112.644 11.3016 111.497 11.8657 110.493 12.994L106.898 12.4777L109.173 0.430267H120.905V4.57993H112.539L111.841 8.50968C112.826 8.01248 113.839 7.76389 114.872 7.76389C116.841 7.76389 118.505 8.48099 119.872 9.91521C121.24 11.3494 121.928 13.2043 121.928 15.4895C121.928 17.3922 121.374 19.0942 120.274 20.5858C118.773 22.6319 116.679 23.6454 114.002 23.6454C111.869 23.6454 110.12 23.0717 108.772 21.9244C107.423 20.777 106.62 19.2376 106.353 17.2966V17.2871Z" fill="#231F20"/>
<path d="M139.301 5.76554L135.008 6.24362C134.903 5.36396 134.626 4.70422 134.186 4.28352C133.746 3.86282 133.172 3.65247 132.465 3.65247C131.528 3.65247 130.734 4.07317 130.084 4.91458C129.434 5.75598 129.032 7.50572 128.86 10.1734C129.969 8.87301 131.337 8.21327 132.981 8.21327C134.836 8.21327 136.423 8.92082 137.743 10.3263C139.062 11.7414 139.722 13.5581 139.722 15.7859C139.722 18.1572 139.024 20.0503 137.638 21.4845C136.251 22.9188 134.463 23.6359 132.283 23.6359C129.95 23.6359 128.028 22.7275 126.518 20.9109C125.017 19.0942 124.261 16.1206 124.261 11.9805C124.261 7.84037 125.045 4.6851 126.613 2.81106C128.181 0.93702 130.218 0 132.723 0C134.482 0 135.936 0.487633 137.093 1.47246C138.25 2.45729 138.976 3.88194 139.292 5.75598L139.301 5.76554ZM129.243 15.4417C129.243 16.8855 129.577 17.9946 130.237 18.7787C130.897 19.5627 131.662 19.9547 132.513 19.9547C133.364 19.9547 134.014 19.6296 134.568 18.989C135.113 18.3484 135.391 17.2966 135.391 15.8337C135.391 14.3708 135.094 13.2235 134.511 12.5255C133.918 11.8275 133.182 11.4737 132.302 11.4737C131.423 11.4737 130.725 11.8084 130.142 12.4777C129.549 13.147 129.262 14.1318 129.262 15.4417H129.243Z" fill="#231F20"/>
<path d="M264.726 118.74C264.385 115.714 262.979 113.371 260.507 111.709C258.036 110.026 254.925 109.184 251.175 109.184C248.49 109.184 246.168 109.61 244.208 110.462C242.248 111.293 240.724 112.444 239.637 113.914C238.572 115.363 238.039 117.014 238.039 118.868C238.039 120.423 238.402 121.766 239.126 122.895C239.872 124.024 240.841 124.972 242.034 125.739C243.249 126.485 244.549 127.114 245.934 127.625C247.319 128.115 248.65 128.52 249.929 128.839L256.321 130.501C258.409 131.013 260.55 131.705 262.745 132.579C264.939 133.452 266.974 134.603 268.849 136.031C270.724 137.458 272.237 139.227 273.387 141.336C274.559 143.445 275.145 145.97 275.145 148.911C275.145 152.618 274.186 155.91 272.269 158.786C270.373 161.663 267.613 163.932 263.991 165.594C260.39 167.256 256.033 168.087 250.919 168.087C246.019 168.087 241.779 167.309 238.199 165.754C234.62 164.198 231.818 161.993 229.794 159.138C227.77 156.261 226.651 152.852 226.438 148.911H236.346C236.537 151.276 237.304 153.246 238.647 154.823C240.01 156.379 241.747 157.54 243.856 158.307C245.987 159.053 248.32 159.425 250.855 159.425C253.647 159.425 256.129 158.989 258.302 158.115C260.497 157.22 262.223 155.984 263.48 154.408C264.737 152.81 265.365 150.945 265.365 148.815C265.365 146.876 264.811 145.288 263.703 144.053C262.617 142.817 261.136 141.794 259.261 140.984C257.407 140.175 255.309 139.461 252.965 138.843L245.23 136.734C239.989 135.306 235.834 133.207 232.766 130.438C229.719 127.668 228.196 124.003 228.196 119.443C228.196 115.672 229.218 112.38 231.264 109.567C233.309 106.755 236.079 104.571 239.573 103.016C243.068 101.439 247.01 100.651 251.399 100.651C255.831 100.651 259.74 101.428 263.128 102.984C266.537 104.539 269.222 106.68 271.182 109.408C273.142 112.114 274.165 115.224 274.25 118.74H264.726ZM286.947 167V101.545H296.822V129.99H329.454V101.545H339.361V167H329.454V138.46H296.822V167H286.947ZM350.515 110.047V101.545H401.172V110.047H380.75V167H370.906V110.047H350.515ZM412.366 167V101.545H435.697C440.768 101.545 444.977 102.419 448.322 104.166C451.688 105.913 454.202 108.332 455.864 111.421C457.526 114.489 458.357 118.037 458.357 122.064C458.357 126.07 457.516 129.596 455.832 132.643C454.17 135.668 451.656 138.023 448.29 139.706C444.945 141.389 440.736 142.231 435.665 142.231H417.991V133.729H434.771C437.967 133.729 440.566 133.271 442.569 132.355C444.593 131.439 446.074 130.107 447.011 128.36C447.949 126.613 448.418 124.514 448.418 122.064C448.418 119.592 447.938 117.451 446.979 115.64C446.042 113.829 444.561 112.444 442.537 111.485C440.534 110.505 437.903 110.015 434.643 110.015H422.242V167H412.366ZM444.678 137.469L460.85 167H449.6L433.748 137.469H444.678ZM470.374 101.545H482.359L503.197 152.426H503.964L524.803 101.545H536.788V167H527.391V119.635H526.784L507.48 166.904H499.682L480.378 119.603H479.771V167H470.374V101.545Z" fill="black"/>
</svg>
