<svg width="540" height="269" viewBox="0 0 540 269" fill="none" xmlns="http://www.w3.org/2000/svg">
<path d="M112.263 269C101.417 266.804 91.2387 262.943 81.7516 257.453C51.8081 240.146 32.624 214.499 26.2622 180.649C18.8999 141.47 29.5358 106.904 57.7622 78.3586C82.7275 53.119 108.076 28.2249 133.251 3.1827C134.054 2.38086 134.931 1.6407 136.735 0C136.735 8.3145 136.87 15.6668 136.611 23.0067C136.562 24.302 135.067 25.6837 133.98 26.7692C112.832 47.9009 91.634 68.9832 70.4487 90.0902C32.7722 127.629 31.4134 185.658 67.9163 224.343C74.8957 231.745 84.0987 237.05 92.3257 243.242C93.2769 243.958 94.5863 244.192 96.5875 244.982C96.5875 239.184 96.7481 234.077 96.4516 228.994C96.3898 227.97 94.7098 226.897 93.5981 226.108C67.8422 207.875 55.0569 183.166 57.4163 151.561C58.8493 132.465 66.9034 115.836 80.331 102.118C98.0204 84.0332 116.006 66.2446 133.881 48.345C134.783 47.4321 135.771 46.6056 137.093 45.409C138.192 46.3219 139.316 47.1237 140.292 48.0859C158.155 65.8005 176.128 83.4041 193.817 101.279C218.35 126.062 224.589 160.011 210.827 191.961C198.376 220.852 165.949 240.923 134.758 239.147C131.657 238.974 130.57 237.938 130.583 234.743C130.793 189.63 130.916 144.505 130.941 99.3916C130.941 94.0994 135.524 92.5821 137.71 89.017C143.702 92.8535 146.95 96.875 146.852 104.412C146.37 141.482 146.629 178.564 146.629 215.634V221.062C149.866 220.396 152.509 220.038 155.042 219.31C200.797 206.234 215.942 147.897 182.317 114.306C168.284 100.28 154.189 86.3277 140.255 72.2029C138.056 69.9701 136.747 69.6247 134.4 72.0179C120.293 86.3647 105.741 100.292 91.9057 114.898C62.7034 145.738 70.5969 193.799 108.039 214.203C111.238 215.943 112.412 217.793 112.362 221.482C112.127 237.099 112.263 252.729 112.263 268.975V269Z" fill="#EE2228"/>
<path d="M292.891 118.74C292.55 115.714 291.143 113.371 288.672 111.709C286.2 110.026 283.089 109.184 279.339 109.184C276.655 109.184 274.332 109.61 272.372 110.462C270.412 111.293 268.888 112.444 267.802 113.914C266.737 115.363 266.204 117.014 266.204 118.868C266.204 120.423 266.566 121.766 267.29 122.895C268.036 124.024 269.006 124.972 270.199 125.739C271.413 126.485 272.713 127.114 274.098 127.625C275.483 128.115 276.815 128.52 278.093 128.839L284.485 130.501C286.573 131.013 288.714 131.705 290.909 132.579C293.104 133.452 295.138 134.603 297.013 136.031C298.888 137.458 300.401 139.227 301.552 141.336C302.724 143.445 303.31 145.97 303.31 148.911C303.31 152.618 302.351 155.91 300.433 158.786C298.537 161.663 295.778 163.932 292.156 165.594C288.555 167.256 284.197 168.087 279.084 168.087C274.183 168.087 269.943 167.309 266.364 165.754C262.784 164.198 259.982 161.993 257.958 159.138C255.934 156.261 254.815 152.852 254.602 148.911H264.51C264.702 151.276 265.469 153.246 266.811 154.823C268.175 156.379 269.911 157.54 272.021 158.307C274.151 159.053 276.484 159.425 279.02 159.425C281.811 159.425 284.293 158.989 286.467 158.115C288.661 157.22 290.387 155.984 291.644 154.408C292.901 152.81 293.53 150.945 293.53 148.815C293.53 146.876 292.976 145.288 291.868 144.053C290.781 142.817 289.3 141.794 287.425 140.984C285.572 140.175 283.473 139.461 281.129 138.843L273.395 136.734C268.153 135.306 263.999 133.207 260.93 130.438C257.884 127.668 256.36 124.003 256.36 119.443C256.36 115.672 257.383 112.38 259.428 109.567C261.474 106.755 264.244 104.571 267.738 103.016C271.232 101.439 275.174 100.651 279.563 100.651C283.995 100.651 287.905 101.428 291.293 102.984C294.702 104.539 297.386 106.68 299.347 109.408C301.307 112.114 302.33 115.224 302.415 118.74H292.891ZM371.968 134.273C371.968 141.261 370.69 147.27 368.133 152.298C365.576 157.305 362.071 161.162 357.618 163.868C353.186 166.553 348.147 167.895 342.501 167.895C336.833 167.895 331.773 166.553 327.32 163.868C322.888 161.162 319.394 157.295 316.837 152.266C314.28 147.238 313.002 141.24 313.002 134.273C313.002 127.284 314.28 121.286 316.837 116.279C319.394 111.251 322.888 107.394 327.32 104.71C331.773 102.004 336.833 100.651 342.501 100.651C348.147 100.651 353.186 102.004 357.618 104.71C362.071 107.394 365.576 111.251 368.133 116.279C370.69 121.286 371.968 127.284 371.968 134.273ZM362.188 134.273C362.188 128.946 361.325 124.461 359.6 120.817C357.895 117.153 355.551 114.383 352.568 112.508C349.607 110.612 346.251 109.663 342.501 109.663C338.73 109.663 335.363 110.612 332.401 112.508C329.44 114.383 327.096 117.153 325.37 120.817C323.666 124.461 322.813 128.946 322.813 134.273C322.813 139.599 323.666 144.095 325.37 147.76C327.096 151.403 329.44 154.173 332.401 156.07C335.363 157.945 338.73 158.882 342.501 158.882C346.251 158.882 349.607 157.945 352.568 156.07C355.551 154.173 357.895 151.403 359.6 147.76C361.325 144.095 362.188 139.599 362.188 134.273ZM384.281 167V101.545H407.612C412.683 101.545 416.891 102.419 420.236 104.166C423.603 105.913 426.117 108.332 427.779 111.421C429.441 114.489 430.272 118.037 430.272 122.064C430.272 126.07 429.43 129.596 427.747 132.643C426.085 135.668 423.571 138.023 420.204 139.706C416.859 141.389 412.651 142.231 407.58 142.231H389.906V133.729H406.685C409.881 133.729 412.48 133.271 414.483 132.355C416.507 131.439 417.988 130.107 418.926 128.36C419.863 126.613 420.332 124.514 420.332 122.064C420.332 119.592 419.853 117.451 418.894 115.64C417.956 113.829 416.475 112.444 414.451 111.485C412.449 110.505 409.817 110.015 406.557 110.015H394.157V167H384.281ZM416.593 137.469L432.765 167H421.515L405.662 137.469H416.593ZM442.289 101.545H454.274L475.112 152.426H475.879L496.717 101.545H508.702V167H499.306V119.635H498.699L479.395 166.904H471.596L452.292 119.603H451.685V167H442.289V101.545Z" fill="black"/>
</svg>
